<?xml version="1.0" encoding="UTF-8" standalone="no"?>
<svg
   xmlns:dc="http://purl.org/dc/elements/1.1/"
   xmlns:cc="http://creativecommons.org/ns#"
   xmlns:rdf="http://www.w3.org/1999/02/22-rdf-syntax-ns#"
   xmlns:svg="http://www.w3.org/2000/svg"
   xmlns="http://www.w3.org/2000/svg"
   xmlns:sodipodi="http://sodipodi.sourceforge.net/DTD/sodipodi-0.dtd"
   xmlns:inkscape="http://www.inkscape.org/namespaces/inkscape"
   inkscape:version="1.0beta2 (2b71d25, 2019-12-03)"
   sodipodi:docname="linkedin.png"
   viewBox="0 0 171.84 170.88"
   height="170.88"
   width="171.84"
   id="svg873"
   version="1.1">
  <metadata
     id="metadata879">
    <rdf:RDF>
      <cc:Work
         rdf:about="">
        <dc:format>image/svg+xml</dc:format>
        <dc:type
           rdf:resource="http://purl.org/dc/dcmitype/StillImage" />
        <dc:title></dc:title>
      </cc:Work>
    </rdf:RDF>
  </metadata>
  <defs
     id="defs877" />
  <sodipodi:namedview
     inkscape:current-layer="layer1"
     inkscape:window-maximized="0"
     inkscape:window-y="23"
     inkscape:window-x="0"
     inkscape:cy="85.440002"
     inkscape:cx="85.919998"
     inkscape:zoom="3.7862827"
     showgrid="false"
     id="namedview875"
     inkscape:window-height="855"
     inkscape:window-width="1381"
     inkscape:pageshadow="2"
     inkscape:pageopacity="0"
     guidetolerance="10"
     gridtolerance="10"
     objecttolerance="10"
     borderopacity="1"
     inkscape:document-rotation="0"
     bordercolor="#666666"
     pagecolor="#ffffff" />
  <g
     inkscape:label="Image 1"
     id="layer1"
     inkscape:groupmode="layer">
    <path
       inkscape:connector-curvature="0"
       id="path894"
       d="M 108.22884,-0.45249691 C 75.223694,-0.42748647 42.218554,-0.3951064 9.2134134,-0.36635125 5.138827,1.0961152 1.4820921,4.1789962 0.13749483,8.4089047 -1.0688845,11.092341 -0.20916039,14.155143 -0.46740036,17.008767 c 0.056072,47.075812 -0.13486492,94.152803 0.16266839,141.227803 0.0629582,1.93283 -0.19995602,3.94963 0.81949547,5.67791 1.4836491,3.85224 5.0650955,6.85842 8.9978384,7.9002 51.0098181,-0.0359 102.0206981,0.15065 153.0297981,-0.13058 1.97019,-0.4153 3.83869,-1.57229 5.36785,-2.90161 1.98096,-1.902 3.96207,-4.26328 3.94207,-7.16918 0.6381,-12.82272 0.30009,-25.67361 0.40009,-38.50815 -0.0867,-36.535398 0.0549,-73.07229 -0.23362,-109.606647 -0.0408,-2.71079 0.12736,-5.6544449 -1.66086,-7.9146224 -2.29112,-3.4911001 -6.23184,-6.26807655 -10.56755,-5.89195165 -17.18528,-0.25215811 -34.37484,-0.11206189 -51.56154,-0.14443586 z M 38.626746,24.522011 c 7.399141,-0.0136 14.032053,6.78137 13.59193,14.220226 0.06378,2.852288 -0.978223,5.577927 -2.566316,7.905802 -3.878361,5.234469 -11.571009,7.294727 -17.40968,4.216494 -4.92272,-2.336239 -8.145268,-7.851395 -7.587834,-13.246726 0.0079,-7.304719 6.825553,-13.280475 13.9719,-13.095796 z m 76.543784,38.705717 c 6.19788,-0.212723 12.70343,0.721982 18.08694,4.057845 4.6,2.736658 7.6758,7.37553 9.43325,12.353679 2.01729,6.221686 2.54299,12.953061 2.69192,19.463743 0.10321,15.332845 -0.0448,30.707385 -0.0575,46.055975 -7.87554,0 -15.75108,0 -23.62661,0 -0.15747,-16.37528 -0.006,-32.76088 -0.47613,-49.128826 -1.00031,-3.331605 -1.91437,-7.099288 -4.82549,-9.399966 -3.6426,-3.166528 -8.86513,-2.878082 -13.33526,-2.261683 -4.933005,0.970377 -8.921677,5.022493 -10.078006,9.881991 -0.922887,2.695831 -1.542503,5.460625 -1.279945,8.326704 -0.0501,14.23795 -0.100489,28.47589 -0.151003,42.71384 -7.92623,-0.0577 -15.850446,0.13147 -23.76073,-0.1465 -0.126614,-26.60895 0.01252,-53.245778 0.03147,-79.865299 7.565172,-0.04192 15.130344,-0.08387 22.695516,-0.125865 0.06675,3.468151 -0.131126,6.986182 0.09615,10.424074 0.93812,1.833046 2.401754,-0.441959 2.97272,-1.435897 4.853956,-6.800596 13.111568,-11.432799 21.582718,-10.913815 z m -76.808928,1.98857 c 3.960122,0.02115 7.920244,0.0423 11.880365,0.06345 0,26.628126 0,53.256252 0,79.884382 -7.916804,0.0423 -15.833609,0.0846 -23.750414,0.1269 0,-26.71273 0,-53.425453 0,-80.138179 3.956683,0.02115 7.913366,0.0423 11.870049,0.06345 z"
       style="fill:#ffffff;stroke-width:5.25561;stroke-linecap:round" />
  </g>
</svg>
