<?xml version="1.0" encoding="UTF-8" standalone="no"?>
<svg
   xmlns:dc="http://purl.org/dc/elements/1.1/"
   xmlns:cc="http://creativecommons.org/ns#"
   xmlns:rdf="http://www.w3.org/1999/02/22-rdf-syntax-ns#"
   xmlns:svg="http://www.w3.org/2000/svg"
   xmlns="http://www.w3.org/2000/svg"
   xmlns:sodipodi="http://sodipodi.sourceforge.net/DTD/sodipodi-0.dtd"
   xmlns:inkscape="http://www.inkscape.org/namespaces/inkscape"
   version="1.1"
   id="svg954"
   width="258"
   height="249.44"
   viewBox="0 0 258 249.44"
   sodipodi:docname="twitter.svg"
   inkscape:version="1.0beta2 (2b71d25, 2019-12-03)">
  <metadata
     id="metadata960">
    <rdf:RDF>
      <cc:Work
         rdf:about="">
        <dc:format>image/svg+xml</dc:format>
        <dc:type
           rdf:resource="http://purl.org/dc/dcmitype/StillImage" />
        <dc:title></dc:title>
      </cc:Work>
    </rdf:RDF>
  </metadata>
  <defs
     id="defs958" />
  <sodipodi:namedview
     units="px"
     pagecolor="#ffffff"
     bordercolor="#666666"
     inkscape:document-rotation="0"
     borderopacity="1"
     objecttolerance="10"
     gridtolerance="10"
     guidetolerance="10"
     inkscape:pageopacity="0"
     inkscape:pageshadow="2"
     inkscape:window-width="1382"
     inkscape:window-height="855"
     id="namedview956"
     showgrid="false"
     inkscape:zoom="1.271028"
     inkscape:cx="-75.647076"
     inkscape:cy="107"
     inkscape:window-x="0"
     inkscape:window-y="23"
     inkscape:window-maximized="0"
     inkscape:current-layer="layer2" />
  <g
     inkscape:groupmode="layer"
     id="layer2"
     inkscape:label="Image 1">
    <path
       style="fill:#ffffff;stroke-width:15.656;stroke-linecap:round"
       d="m 177.86392,23.364454 c -15.98784,-0.396983 -31.11079,8.161207 -40.27713,21.036735 -9.10002,11.617422 -10.5847,27.072978 -8.94176,41.272878 C 116.49377,84.63406 104.01742,83.045984 92.360124,79.020373 88.319489,77.189674 83.653958,76.338115 79.595172,74.15995 61.980188,66.764991 46.257887,55.615108 32.887107,41.968567 29.645673,39.068698 26.997015,35.465773 24.209703,32.290852 18.855514,37.883234 17.771117,46.597214 16.990521,54.166599 14.887686,71.69175 23.242684,89.3829 37.002312,100.0986 30.23601,100.32072 23.58501,97.126422 17.150333,95.182856 c -3.443567,1.309102 -0.563835,6.082504 -0.491879,8.635614 3.18658,19.84821 18.853888,37.36272 38.651504,41.58364 -4.657012,2.57052 -10.667406,0.83546 -15.839786,1.48901 -1.800513,-0.0373 -6.38486,-0.30488 -4.649903,2.74907 6.97057,16.93299 22.754342,30.1574 41.168386,32.2804 1.062298,0.46348 5.718647,0.40389 3.097886,1.89162 -13.007163,9.53623 -28.196849,16.0822 -44.034237,18.49664 -9.028951,1.28411 -18.410121,0.35292 -27.38771,1.33228 0.7041633,3.45477 6.47991,4.06544 9.186092,6.3479 10.113553,5.5255 20.992232,9.6636 32.116012,12.57765 19.564567,4.41067 39.841923,5.46287 59.693452,2.39163 18.04975,-2.29735 35.70954,-8.44413 51.31476,-17.77631 18.89051,-11.48981 35.49559,-26.90115 46.96646,-45.91246 9.07079,-14.6545 16.82114,-30.42879 20.39192,-47.37029 2.97572,-10.74425 3.18076,-22.187962 3.81296,-33.298934 -1.17684,-5.346797 2.09075,-8.534492 6.21829,-11.303863 6.32223,-5.967593 13.16019,-11.991701 17.44405,-19.612262 -0.65213,-3.255134 -4.66872,-0.171553 -6.50464,0.345746 -6.18462,1.65585 -12.53572,4.127109 -18.82549,4.457822 8.48647,-6.371542 16.39004,-14.866324 19.29878,-25.256377 -1.85224,-2.411342 -5.31585,1.006135 -7.49099,1.601332 -7.65808,3.745012 -15.92658,6.618122 -24.41755,7.999656 -9.7728,-9.81425 -23.21052,-16.34757 -37.29138,-15.480249 -0.57114,-0.007 -1.14225,0.0123 -1.7134,0.01233 z"
       id="path1528"
       inkscape:connector-curvature="0" />
  </g>
</svg>
